PathFileType	4	(X/Y/Z)	C:\Users\u0145647\OneDrive - KU Leuven\KU Leuven\c3d2osim\CP4\T0\Data\Processed\ViconC3D_CP4_2\CP4_T0_cmj_T2_gapFilled.trc
DataRate	CameraRate	NumFrames	NumMarkers	Units	OrigDataRate	OrigDataStartFrame	OrigNumFrames
100.000000	100.000000	10	47	mm	100.000000	559	638
Frame#	Time	C7			T10			CLAV			STRN			LSHO			RSHO			RBAK			LASI			RASI			LPSI			RPSI			LLAT			RLAT			LF1			LF2			LF3			LTHI			LKNE			LMEK			RF1			RF2			RF3			RTHI			RKNE			RMEK			LT1			LT2			LT3			LTIB			LANK			LMM			RT1			RT2			RT3			RTIB			RANK			RMM			LHEE			LSTL			LLCA			LTOE			LCM5			RHEE			RSTL			RLCA			RTOE			RCM5
		X1	Y1	Z1	X2	Y2	Z2	X3	Y3	Z3	X4	Y4	Z4	X5	Y5	Z5	X6	Y6	Z6	X7	Y7	Z7	X8	Y8	Z8	X9	Y9	Z9	X10	Y10	Z10	X11	Y11	Z11	X12	Y12	Z12	X13	Y13	Z13	X14	Y14	Z14	X15	Y15	Z15	X16	Y16	Z16	X17	Y17	Z17	X18	Y18	Z18	X19	Y19	Z19	X20	Y20	Z20	X21	Y21	Z21	X22	Y22	Z22	X23	Y23	Z23	X24	Y24	Z24	X25	Y25	Z25	X26	Y26	Z26	X27	Y27	Z27	X28	Y28	Z28	X29	Y29	Z29	X30	Y30	Z30	X31	Y31	Z31	X32	Y32	Z32	X33	Y33	Z33	X34	Y34	Z34	X35	Y35	Z35	X36	Y36	Z36	X37	Y37	Z37	X38	Y38	Z38	X39	Y39	Z39	X40	Y40	Z40	X41	Y41	Z41	X42	Y42	Z42	X43	Y43	Z43	X44	Y44	Z44	X45	Y45	Z45	X46	Y46	Z46	X47	Y47	Z47

559	5.58	-134.45	1438.4	-302.86	-106.1	1183.6	-322.1	-146.95	1366.3	-180.26	-139.28	1217.7	-142.24	66.371	1411.7	-190.13	-333.2	1380.3	-275.04	-247.93	1348	-348.53	-52.906	931.79	-131.16	-247.39	930.52	-188.66	-69.899	963.58	-313.22	-139.43	967.58	-335.33	11.458	997.63	-178.38	-275.08	1001.8	-258.33	63.449	685.2	-154.95	58.888	728.79	-170.53	70.132	680.23	-188.73	123.74	615.28	-172.05	73.89	475.82	-162.69	NaN	NaN	NaN	-300.15	650.62	-260.89	-305.65	684.31	-241.31	-283.89	681.84	-299.78	-341.04	589.69	-263.15	-286.6	464.41	-218.36	NaN	NaN	NaN	123.36	316.85	-244.7	108.09	347.05	-193.48	111.67	360.65	-243.88	162.8	246.63	-198.41	142.24	85.545	-298.88	58.743	74.538	-265.31	-308.07	319.02	-263.09	-298.87	358.79	-231.91	-298.46	367.13	-283.18	-356.22	251.13	-266.44	-303.52	72.483	-292.71	-225.09	79.098	-252.71	90.234	59.52	-338.53	68.522	45.546	-270.56	143.31	56.124	-296.01	143.55	49.185	-168.21	183.93	46.891	-192.72	-248.94	63.164	-327.31	-231.45	42.828	-257.06	-305.18	46.829	-286.14	-320.98	45.669	-161.11	-362.69	33.447	-203.34
560	5.59	-135.26	1438.4	-302.01	-106.82	1183.7	-321.51	-147.8	1366	-179.63	-140.05	1217.4	-141.91	65.568	1411.5	-189.46	-333.92	1380	-274.82	-248.51	1347.7	-348.1	-53.533	931.57	-130.66	-248.04	930.55	-188.27	-70.403	963.51	-312.73	-139.96	967.55	-334.84	10.939	997.56	-177.26	-275.61	1001.7	-258.04	62.888	685.13	-154.52	58.287	728.8	-170.09	69.566	680.18	-188.32	123.41	615.28	-171.63	73.602	475.81	-162.61	NaN	NaN	NaN	-300.69	650.55	-260.44	-306.15	684.26	-240.9	-284.38	681.84	-299.35	-341.46	589.6	-262.64	-286.91	464.34	-218.03	NaN	NaN	NaN	123.07	316.9	-244.71	107.82	347.03	-193.49	111.38	360.7	-243.9	162.74	246.84	-198.6	142.17	85.585	-298.83	58.743	74.479	-265.24	-308.28	318.99	-262.85	-299.15	358.78	-231.67	-298.7	367.12	-282.94	-356.38	251.03	-266.23	-303.57	72.506	-292.69	-225.11	79.155	-252.69	90.204	59.516	-338.49	68.529	45.497	-270.53	143.65	56.277	-296.07	143.71	49.128	-168.19	184.03	46.824	-192.76	-248.95	63.191	-327.31	-231.75	42.786	-257.01	-305.59	47.053	-286.11	-320.97	45.625	-161.11	-362.71	33.439	-203.32
561	5.6	-136.16	1438.3	-301.14	-107.51	1183.7	-320.94	-148.72	1365.7	-178.79	-140.85	1217	-141.51	64.783	1411.3	-188.87	-334.75	1379.7	-274.57	-249.13	1347.4	-347.68	-54.251	931.38	-130.1	-248.66	930.51	-187.87	-70.941	963.42	-312.2	-140.49	967.51	-334.35	10.347	997.5	-176.72	-276.16	1001.6	-257.77	62.211	684.97	-154.09	57.626	728.73	-169.57	68.959	680.07	-187.8	122.68	615.26	-171.02	73.146	475.76	-162.46	NaN	NaN	NaN	-301.18	650.48	-260.02	-306.68	684.23	-240.47	-284.93	681.85	-298.93	-341.96	589.58	-262.19	-287.23	464.28	-217.73	NaN	NaN	NaN	122.74	316.97	-244.77	107.56	347.05	-193.54	111.11	360.79	-243.95	162.63	247.01	-198.77	142.13	85.634	-298.79	58.361	74.473	-265.23	-308.47	318.95	-262.69	-299.4	358.77	-231.43	-298.95	367.08	-282.68	-356.57	250.91	-265.97	-303.59	72.456	-292.68	-225.15	79.16	-252.62	90.141	59.546	-338.43	68.544	45.399	-270.43	143.61	56.342	-296.13	143.87	49.098	-168.13	184.2	46.713	-192.79	-248.98	63.24	-327.27	-231.47	42.883	-257.08	-305.21	46.805	-286.12	-320.97	45.622	-161.11	-362.7	33.423	-203.32
562	5.61	-137.19	1438.2	-300.29	-108.28	1183.9	-320.32	-149.63	1365.3	-178.14	-141.71	1216.6	-140.98	63.873	1411.1	-188.28	-335.6	1379.4	-274.31	-249.81	1347.2	-347.25	-55.086	931.22	-129.45	-249.35	930.54	-187.46	-71.553	963.35	-311.63	-141.03	967.51	-333.93	9.6278	997.41	-176.07	-276.81	1001.5	-257.43	61.486	684.57	-153.79	56.844	728.66	-168.93	68.318	680.1	-187.36	121.97	615.22	-170.54	72.614	475.71	-162.32	NaN	NaN	NaN	-301.71	650.46	-259.65	-307.23	684.16	-240.04	-285.57	681.8	-298.56	-342.45	589.51	-261.79	-287.54	464.23	-217.48	NaN	NaN	NaN	122.39	317.05	-244.84	107.24	347.06	-193.67	110.82	360.86	-243.97	162.66	247.25	-198.89	142.12	85.556	-298.52	58.333	74.405	-265.16	-308.78	318.95	-262.51	-299.6	358.72	-231.25	-299.29	367.07	-282.46	-356.76	250.84	-265.77	-303.63	72.448	-292.64	-225.16	79.214	-252.65	90.081	59.553	-338.33	68.698	45.227	-270.25	143.33	56.213	-295.96	144.02	49.069	-168.1	184.36	46.669	-192.82	-248.99	63.229	-327.26	-231.49	42.885	-257.06	-305.24	46.806	-286.1	-320.99	45.605	-161.09	-362.73	33.416	-203.32
563	5.62	-138.21	1438.1	-299.38	-109.09	1184	-319.74	-150.51	1365	-177.51	-142.69	1216.4	-140.45	62.957	1411	-187.75	-336.54	1379.1	-273.99	-250.64	1347	-346.8	-55.777	931.06	-128.89	-250.1	930.57	-187.01	-72.193	963.29	-311.11	-141.67	967.51	-333.4	8.8515	997.32	-175.48	-277.52	1001.5	-257.1	59.944	684.1	-153.22	56.009	728.6	-168.13	67.631	680.1	-186.86	121.41	615.44	-170.16	72.069	475.69	-162.26	NaN	NaN	NaN	-302.22	650.43	-259.31	-307.78	684.15	-239.64	-286.35	681.9	-298.26	-342.92	589.42	-261.46	-287.91	464.24	-217.3	NaN	NaN	NaN	122.05	317.11	-244.98	106.3	346.95	-193.74	110.49	360.95	-244.07	162.54	247.42	-199.21	141.99	85.726	-298.68	58.281	74.339	-265.09	-309.03	318.9	-262.37	-299.86	358.69	-231.07	-299.66	367.08	-282.29	-356.91	250.75	-265.73	-303.65	72.431	-292.64	-225.2	79.189	-252.63	90.019	59.566	-338.31	68.541	45.237	-270.31	143.28	56.172	-295.88	144.14	49.048	-168.04	184.45	46.654	-192.86	-249.03	63.252	-327.25	-231.52	42.908	-257.09	-305.25	46.799	-286.1	-320.98	45.618	-161.08	-362.73	33.409	-203.33
564	5.63	-139.31	1438.1	-298.53	-109.93	1184.1	-319.18	-151.61	1364.7	-176.72	-143.66	1216.1	-139.99	61.951	1410.8	-187.18	-337.49	1378.9	-273.67	-251.54	1346.8	-346.34	-56.592	930.91	-128.4	-250.9	930.57	-186.56	-72.858	963.28	-310.43	-142.32	967.55	-332.79	8.0816	997.19	-174.95	-278.29	1001.4	-256.83	59.464	684.17	-152.47	55.762	728.75	-168.3	66.914	680.12	-186.4	120.85	615.53	-169.88	71.513	475.69	-162.28	NaN	NaN	NaN	-302.76	650.42	-259.02	-308.36	684.14	-239.38	-286.7	681.84	-297.76	-343.42	589.38	-261.2	-288.35	464.24	-217.16	NaN	NaN	NaN	121.69	317.19	-245.14	106.09	347.11	-193.95	110.11	361.02	-244.23	162.38	247.7	-199.39	141.96	85.751	-298.64	58.232	74.292	-265.06	-309.33	318.85	-262.26	-300.24	358.7	-231.01	-300	367.04	-282.19	-357.13	250.64	-265.62	-303.71	72.429	-292.64	-225.26	79.229	-252.67	89.942	59.563	-338.27	68.352	45.145	-270.37	143.26	56.254	-295.86	144.26	49.017	-168.04	184.54	46.618	-192.9	-249.1	63.281	-327.27	-231.56	42.962	-257.07	-305.72	47.02	-286.05	-321.02	45.638	-161.09	-362.74	33.392	-203.31
565	5.64	-140.46	1438.1	-297.77	-110.86	1184.2	-318.57	-152.71	1364.5	-176.07	-144.69	1215.7	-139.67	60.917	1410.7	-186.69	-338.58	1378.7	-273.27	-252.53	1346.6	-345.88	-57.402	930.89	-127.82	-251.78	930.59	-186.14	-73.548	963.23	-309.83	-143.04	967.62	-332.25	7.2611	997.17	-174.43	-279.23	1001.4	-256.48	58.988	684.19	-152.2	53.983	728.24	-167.17	66.216	680.19	-186.02	119.9	615.3	-169.38	70.98	475.72	-162.39	NaN	NaN	NaN	-303.36	650.46	-258.77	-309	684.14	-239.1	-287.29	681.9	-297.51	-343.92	589.32	-261.07	-288.82	464.25	-217.09	NaN	NaN	NaN	121.23	317.27	-245.3	105.6	347.18	-194.11	109.61	361.13	-244.44	162.26	248	-199.71	141.87	85.853	-298.66	58.54	74.149	-265	-309.63	318.8	-262.21	-300.47	358.62	-230.9	-300.41	367.07	-282.15	-357.36	250.56	-265.6	-303.79	72.389	-292.62	-225.29	79.287	-252.69	89.883	59.571	-338.26	68.329	45.061	-270.38	143.21	56.257	-295.89	144.34	49.053	-168.04	184.59	46.668	-192.93	-249.12	63.303	-327.28	-231.58	43.014	-257.11	-305.69	46.967	-286.07	-321.02	45.629	-161.09	-362.76	33.38	-203.31
566	5.65	-141.79	1438.1	-297.04	-111.88	1184.2	-318	-153.92	1364.3	-175.35	-145.76	1215.5	-139.22	59.78	1410.5	-186.26	-339.71	1378.5	-272.83	-253.62	1346.5	-345.38	-58.311	930.83	-127.27	-252.61	930.57	-185.79	-74.293	963.23	-309.24	-143.76	967.67	-331.76	6.3114	997.18	-173.61	-279.99	1001.3	-256.23	58.086	684.65	-151.59	53.198	728.25	-166.4	65.39	680.26	-185.68	119.28	615.48	-169.35	70.396	475.73	-162.55	NaN	NaN	NaN	-303.99	650.47	-258.59	-309.76	684.15	-238.87	-287.95	682.02	-297.27	-344.47	589.3	-260.94	-289.21	464.23	-217.04	NaN	NaN	NaN	120.83	317.42	-245.55	105.08	347.31	-194.34	109.03	361.16	-244.66	162.09	248.39	-200.08	141.76	85.904	-298.73	58.16	74.184	-265.04	-309.94	318.75	-262.18	-300.75	358.57	-230.85	-300.91	367.09	-282.08	-357.61	250.47	-265.57	-303.86	72.393	-292.62	-225.36	79.32	-252.7	89.826	59.553	-338.25	68.31	45.006	-270.33	143.17	56.303	-295.87	144.43	49.098	-168.04	184.67	46.693	-193.01	-249.19	63.313	-327.28	-231.6	43.025	-257.11	-305.74	46.941	-286.08	-321.03	45.613	-161.1	-362.78	33.365	-203.32
567	5.66	-143.21	1438	-296.22	-112.92	1184.3	-317.43	-155.12	1364.1	-174.66	-146.81	1215.2	-139.13	58.569	1410.5	-185.86	-340.9	1378.4	-272.29	-254.86	1346.4	-344.82	-59.298	930.75	-126.65	-253.59	930.62	-185.42	-75.037	963.29	-308.69	-144.51	967.79	-331.34	5.4284	997.2	-173.06	-280.81	1001.2	-255.92	57.274	684.66	-151.49	52.359	728.3	-165.99	64.24	680.13	-185.28	118.59	615.58	-169.29	69.762	475.77	-162.71	NaN	NaN	NaN	-304.65	650.44	-258.48	-310.46	684.14	-238.71	-288.64	682.13	-297.07	-345.03	589.28	-260.91	-289.38	464.14	-216.95	NaN	NaN	NaN	120.39	317.52	-245.8	104.62	347.35	-194.63	108.46	361.29	-244.92	161.86	248.78	-200.48	141.71	85.938	-298.68	58.101	74.201	-265	-310.31	318.67	-262.18	-300.64	358.42	-230.78	-301.15	367.05	-282.1	-357.9	250.39	-265.58	-303.93	72.34	-292.64	-225.42	79.346	-252.68	89.747	59.585	-338.26	68.416	45.047	-270.16	143.16	56.342	-295.91	144.52	49.073	-168.07	184.75	46.68	-193.07	-249.24	63.323	-327.31	-231.66	43.043	-257.11	-305.79	46.94	-286.08	-321.05	45.626	-161.1	-362.81	33.34	-203.34
568	5.67	-144.62	1438.1	-295.46	-114.1	1184.5	-316.92	-156.4	1363.9	-174.05	-147.99	1215	-138.68	57.358	1410.4	-185.63	-342.23	1378.2	-271.67	-256.18	1346.3	-344.19	-60.304	930.62	-126.16	-254.55	930.64	-185.09	-75.877	963.38	-308.12	-145.31	967.91	-330.94	4.4053	997.26	-172.54	-281.74	1001.2	-255.57	56.323	684.7	-151.04	51.365	728.32	-165.53	63.432	680.2	-184.85	117.4	615.68	-168.77	69.124	475.78	-162.88	NaN	NaN	NaN	-305.32	650.43	-258.36	-311.19	684.11	-238.54	-289.33	682.22	-296.88	-345.57	589.2	-260.9	-290.13	464.18	-216.95	NaN	NaN	NaN	119.97	317.67	-245.96	104.21	347.42	-194.89	107.93	361.39	-245.12	161.6	249.03	-200.8	141.65	86.005	-298.76	58.415	74.068	-265.03	-310.63	318.63	-262.25	-301.09	358.43	-230.77	-301.6	367.05	-282.11	-358.18	250.3	-265.57	-303.73	72.212	-292.72	-225.52	79.442	-252.76	89.69	59.567	-338.22	68.615	44.987	-270.02	143.02	56.243	-295.74	144.64	49.076	-168.06	184.86	46.682	-193.13	-249.27	63.289	-327.31	-231.7	43.119	-257.16	-305.85	46.913	-286.05	-321.08	45.599	-161.13	-362.83	33.288	-203.36
